<svg width="13" height="15" viewBox="0 0 13 15" fill="none" xmlns="http://www.w3.org/2000/svg">
<path d="M8.69268 0.465266C8.43631 0.0212157 7.86655 -0.131479 7.42253 0.124926C7.20743 0.249115 7.05356 0.449621 6.98932 0.689532C6.94452 0.85667 6.9471 1.02896 6.99468 1.19086L5.65749 2.6876C5.54968 2.80827 5.56011 2.99345 5.68078 3.10127C5.80145 3.20908 5.98667 3.19859 6.09442 3.07798L7.28463 1.74574L9.10855 4.90489L10.9325 8.06404L4.64912 9.37407L3.33734 7.10202L3.00839 6.53232L4.33796 5.04411C4.44578 4.92343 4.43535 4.73825 4.31467 4.63044C4.194 4.52262 4.00879 4.53311 3.90103 4.65373L2.46151 6.26496L1.07375 7.06619C0.57741 7.35275 0.222363 7.81546 0.0740341 8.36905C-0.0742951 8.92264 0.00181772 9.50087 0.288369 9.99721C0.57492 10.4936 1.03763 10.8486 1.59122 10.9969C1.77611 11.0464 1.96367 11.071 2.15006 11.071C2.46391 11.071 2.77422 11.0012 3.06221 10.8647L3.43261 11.5063C3.58387 11.7682 3.85923 11.9149 4.14197 11.9149C4.2784 11.9149 4.41648 11.8806 4.54322 11.8088L6.22039 14.7137C6.32636 14.8973 6.51928 15 6.71741 15C6.8145 15 6.91291 14.9753 7.00285 14.9234L8.12547 14.2752C8.29803 14.1756 8.40496 13.9972 8.41158 13.7981C8.41817 13.599 8.32325 13.4139 8.15767 13.3031L7.8253 13.0807L6.45404 10.7056C6.83979 10.4785 6.97153 9.98081 6.74732 9.59245L6.71776 9.54124L11.2687 8.59241C11.4463 8.77785 11.6913 8.87937 11.9417 8.87937C12.0993 8.87937 12.259 8.83929 12.405 8.75497C12.849 8.49863 13.0017 7.92884 12.7454 7.48481L8.69268 0.465266ZM1.74289 10.431C1.34047 10.3231 1.00412 10.065 0.795817 9.70424C0.587517 9.34346 0.532176 8.92311 0.640017 8.52072C0.747858 8.11833 1.00593 7.78197 1.36675 7.57364L2.54149 6.89539L3.32137 8.24615L4.10125 9.5969L2.92645 10.2751C2.5656 10.4834 2.14528 10.5388 1.74289 10.431ZM7.4428 13.5297L7.81428 13.7783L6.72131 14.4094L5.05081 11.516L5.94676 10.9987L7.35204 13.4327C7.37445 13.4716 7.40548 13.5048 7.4428 13.5297ZM6.23994 9.88544C6.3038 9.99604 6.26578 10.138 6.15518 10.2018L5.90756 10.3448C5.90754 10.3448 5.90751 10.3448 5.90748 10.3448C5.90745 10.3448 5.90742 10.3448 5.90739 10.3449L4.50425 11.155C4.50419 11.155 4.50414 11.155 4.50408 11.1551C4.50402 11.1551 4.50399 11.1551 4.50393 11.1552L4.2564 11.2981C4.14584 11.3619 4.00392 11.3239 3.94003 11.2133L3.57335 10.5782L4.60711 9.98133L6.11387 9.66718L6.23994 9.88544ZM12.1121 8.24758C12.0326 8.29352 11.9398 8.30571 11.8512 8.28192C11.7625 8.25813 11.6883 8.20124 11.6424 8.1217L7.5896 1.10215C7.5437 1.02261 7.53148 0.929912 7.55524 0.841201C7.579 0.752491 7.63592 0.678311 7.71546 0.632403C7.76949 0.601232 7.82852 0.586408 7.88685 0.586408C8.00579 0.586408 8.12163 0.648077 8.18527 0.758291L12.238 7.77784C12.3328 7.94202 12.2763 8.15278 12.1121 8.24758Z" fill="white"/>
</svg>
